# xmcd
#
# Track frame offsets:
#	150
#	11927
#	24117
#	34409
#	40517
#	49016
#	58568
#	66357
#	78464
#	86362
#	96580
#	104935
#	115745
#	126727
#	136976
#	145311
#	157069
#	167696
#
# Disc length: 2351 seconds
#
# Revision: 1
# Processed by: cddbd v1.5.1PL2 Copyright (c) Steve Scherf et al.
# Submitted via: EasyCDDAExtractor 6.0.0.1
#
DISCID=03092d12
DTITLE=Gene Autry - Country Music CM017
DYEAR=1999
DGENRE=Country
TTITLE0=Dixie Cannon Ball
TTITLE1=My Hold Kentucky Home
TTITLE2=Down In The Valley
TTITLE3=Cowboy Blues
TTITLE4=A Boy From Texas, A Girl From Tennessee
TTITLE5=The West, A Nest And You
TTITLE6=Don't Bite The Hand That's Feeding You
TTITLE7=Missouri Waltz
TTITLE8=Kentucky Babe
TTITLE9=San Antonio Rose
TTITLE10=Tweedle-O-Twill
TTITLE11=You're The Only Star (In My Blue Heaven)
TTITLE12=Lonely River
TTITLE13=Trouble In Mind
TTITLE14=Goodbye Little Darling
TTITLE15=I Hang My Head And Cry # 4 ('44)
TTITLE16=You're The Only Good Thing
TTITLE17=You Are My Sunshine
EXTD=
EXTT0=
EXTT1=
EXTT2=
EXTT3=
EXTT4=
EXTT5=
EXTT6=
EXTT7=
EXTT8=
EXTT9=
EXTT10=
EXTT11=
EXTT12=
EXTT13=
EXTT14=
EXTT15=
EXTT16=
EXTT17=
PLAYORDER=
